<svg xmlns="http://www.w3.org/2000/svg" width="1200" height="600" viewBox="0 0 1200 600"><defs><marker id="arrow" viewBox="0 0 10 10" refX="9" refY="5" markerWidth="7" markerHeight="7" orient="auto"><path d="M 0 0 L 10 5 L 0 10 z" fill="#56677F"/></marker></defs><rect width="1200" height="600" fill="#FFFFFF"/><text x="36" y="42.0" fill="#23468C" font-family="DejaVu Sans" font-size="21" font-weight="700" text-anchor="start">MÉCANISME • TROIS ACTIVATIONS À RECONNAÎTRE</text><rect x="55" y="105" width="360" height="395" rx="14" fill="#EFF4FA" stroke="none" stroke-width="2"/><text x="235" y="155.0" fill="#23468C" font-family="DejaVu Sans" font-size="23" font-weight="700" text-anchor="middle">ReLU</text><line x1="95" y1="403" x2="383" y2="403" stroke="#0D0D0D" stroke-width="2"/><line x1="230" y1="430" x2="230" y2="200" stroke="#0D0D0D" stroke-width="2"/><polyline points="97.00,402.00 100.54,402.00 104.09,402.00 107.63,402.00 111.18,402.00 114.72,402.00 118.27,402.00 121.81,402.00 125.35,402.00 128.90,402.00 132.44,402.00 135.99,402.00 139.53,402.00 143.08,402.00 146.62,402.00 150.16,402.00 153.71,402.00 157.25,402.00 160.80,402.00 164.34,402.00 167.89,402.00 171.43,402.00 174.97,402.00 178.52,402.00 182.06,402.00 185.61,402.00 189.15,402.00 192.70,402.00 196.24,402.00 199.78,402.00 203.33,402.00 206.87,402.00 210.42,402.00 213.96,402.00 217.51,402.00 221.05,402.00 224.59,402.00 228.14,402.00 231.68,402.00 235.23,402.00 238.77,399.67 242.32,395.01 245.86,390.35 249.41,385.70 252.95,381.04 256.49,376.38 260.04,371.72 263.58,367.06 267.13,362.41 270.67,357.75 274.22,353.09 277.76,348.43 281.30,343.77 284.85,339.11 288.39,334.46 291.94,329.80 295.48,325.14 299.03,320.48 302.57,315.82 306.11,311.16 309.66,306.51 313.20,301.85 316.75,297.19 320.29,292.53 323.84,287.87 327.38,283.22 330.92,278.56 334.47,273.90 338.01,269.24 341.56,264.58 345.10,259.92 348.65,255.27 352.19,250.61 355.73,245.95 359.28,241.29 362.82,236.63 366.37,231.97 369.91,227.32 373.46,222.66 377.00,218.00" fill="none" stroke="#23468C" stroke-width="5" stroke-linecap="round" stroke-linejoin="round"/><rect x="445" y="105" width="360" height="395" rx="14" fill="#EFF4FA" stroke="none" stroke-width="2"/><text x="625" y="155.0" fill="#23468C" font-family="DejaVu Sans" font-size="23" font-weight="700" text-anchor="middle">Sigmoïde</text><line x1="485" y1="403" x2="773" y2="403" stroke="#0D0D0D" stroke-width="2"/><line x1="620" y1="430" x2="620" y2="200" stroke="#0D0D0D" stroke-width="2"/><polyline points="487.00,398.69 490.54,398.34 494.09,397.96 497.63,397.54 501.18,397.08 504.72,396.57 508.27,396.01 511.81,395.40 515.35,394.72 518.90,393.98 522.44,393.17 525.99,392.28 529.53,391.30 533.08,390.23 536.62,389.07 540.16,387.80 543.71,386.41 547.25,384.90 550.80,383.27 554.34,381.49 557.89,379.57 561.43,377.50 564.97,375.27 568.52,372.87 572.06,370.30 575.61,367.56 579.15,364.63 582.70,361.52 586.24,358.24 589.78,354.77 593.33,351.13 596.87,347.32 600.42,343.35 603.96,339.23 607.51,334.98 611.05,330.61 614.59,326.14 618.14,321.58 621.68,316.97 625.23,312.33 628.77,307.67 632.32,303.03 635.86,298.42 639.41,293.86 642.95,289.39 646.49,285.02 650.04,280.77 653.58,276.65 657.13,272.68 660.67,268.87 664.22,265.23 667.76,261.76 671.30,258.48 674.85,255.37 678.39,252.44 681.94,249.70 685.48,247.13 689.03,244.73 692.57,242.50 696.11,240.43 699.66,238.51 703.20,236.73 706.75,235.10 710.29,233.59 713.84,232.20 717.38,230.93 720.92,229.77 724.47,228.70 728.01,227.72 731.56,226.83 735.10,226.02 738.65,225.28 742.19,224.60 745.73,223.99 749.28,223.43 752.82,222.92 756.37,222.46 759.91,222.04 763.46,221.66 767.00,221.31" fill="none" stroke="#23468C" stroke-width="5" stroke-linecap="round" stroke-linejoin="round"/><rect x="835" y="105" width="360" height="395" rx="14" fill="#EFF4FA" stroke="none" stroke-width="2"/><text x="1015" y="155.0" fill="#23468C" font-family="DejaVu Sans" font-size="23" font-weight="700" text-anchor="middle">Softmax (3 classes)</text><rect x="890" y="276" width="55" height="140" rx="4" fill="#23468C" stroke="none" stroke-width="2"/><text x="917" y="453.0" fill="#0D0D0D" font-family="DejaVu Sans" font-size="20" font-weight="400" text-anchor="middle">0,70</text><rect x="983" y="376" width="55" height="40" rx="4" fill="#238C33" stroke="none" stroke-width="2"/><text x="1010" y="453.0" fill="#0D0D0D" font-family="DejaVu Sans" font-size="20" font-weight="400" text-anchor="middle">0,20</text><rect x="1076" y="396" width="55" height="20" rx="4" fill="#F24141" stroke="none" stroke-width="2"/><text x="1103" y="453.0" fill="#0D0D0D" font-family="DejaVu Sans" font-size="20" font-weight="400" text-anchor="middle">0,10</text><text x="1015" y="238.0" fill="#56677F" font-family="DejaVu Sans" font-size="24" font-weight="700" text-anchor="middle">Somme = 1</text><line x1="30" y1="557" x2="1170" y2="557" stroke="#CDD8E6" stroke-width="1"/><text x="32" y="584.0" fill="#56677F" font-family="DejaVu Sans" font-size="16" font-weight="400" text-anchor="start">Schéma pédagogique • valeurs d’illustration, sauf indication contraire</text><text x="1166" y="584.0" fill="#23468C" font-family="DejaVu Sans" font-size="16" font-weight="400" text-anchor="end">https://p2enjoy.studio</text></svg>