<svg xmlns="http://www.w3.org/2000/svg" width="1200" height="600" viewBox="0 0 1200 600"><defs><marker id="arrow" viewBox="0 0 10 10" refX="9" refY="5" markerWidth="7" markerHeight="7" orient="auto"><path d="M 0 0 L 10 5 L 0 10 z" fill="#56677F"/></marker></defs><rect width="1200" height="600" fill="#FFFFFF"/><text x="36" y="42.0" fill="#23468C" font-family="DejaVu Sans" font-size="21" font-weight="700" text-anchor="start">MÉCANISME • SOUS-ÉCHANTILLONNER SANS MYSTÈRE</text><rect x="85" y="134" width="74" height="74" rx="2" fill="#EFF4FA" stroke="none" stroke-width="2"/><text x="123.0" y="185.68" fill="#0D0D0D" font-family="DejaVu Sans" font-size="34.2" font-weight="400" text-anchor="middle">1</text><rect x="161" y="134" width="74" height="74" rx="2" fill="#EFF4FA" stroke="none" stroke-width="2"/><text x="199.0" y="185.68" fill="#0D0D0D" font-family="DejaVu Sans" font-size="34.2" font-weight="400" text-anchor="middle">4</text><rect x="237" y="134" width="74" height="74" rx="2" fill="#EFF4FA" stroke="none" stroke-width="2"/><text x="275.0" y="185.68" fill="#0D0D0D" font-family="DejaVu Sans" font-size="34.2" font-weight="400" text-anchor="middle">2</text><rect x="313" y="134" width="74" height="74" rx="2" fill="#EFF4FA" stroke="none" stroke-width="2"/><text x="351.0" y="185.68" fill="#0D0D0D" font-family="DejaVu Sans" font-size="34.2" font-weight="400" text-anchor="middle">0</text><rect x="85" y="210" width="74" height="74" rx="2" fill="#EFF4FA" stroke="none" stroke-width="2"/><text x="123.0" y="261.68" fill="#0D0D0D" font-family="DejaVu Sans" font-size="34.2" font-weight="400" text-anchor="middle">3</text><rect x="161" y="210" width="74" height="74" rx="2" fill="#EFF4FA" stroke="none" stroke-width="2"/><text x="199.0" y="261.68" fill="#0D0D0D" font-family="DejaVu Sans" font-size="34.2" font-weight="400" text-anchor="middle">2</text><rect x="237" y="210" width="74" height="74" rx="2" fill="#EFF4FA" stroke="none" stroke-width="2"/><text x="275.0" y="261.68" fill="#0D0D0D" font-family="DejaVu Sans" font-size="34.2" font-weight="400" text-anchor="middle">8</text><rect x="313" y="210" width="74" height="74" rx="2" fill="#EFF4FA" stroke="none" stroke-width="2"/><text x="351.0" y="261.68" fill="#0D0D0D" font-family="DejaVu Sans" font-size="34.2" font-weight="400" text-anchor="middle">1</text><rect x="85" y="286" width="74" height="74" rx="2" fill="#EFF4FA" stroke="none" stroke-width="2"/><text x="123.0" y="337.68" fill="#0D0D0D" font-family="DejaVu Sans" font-size="34.2" font-weight="400" text-anchor="middle">1</text><rect x="161" y="286" width="74" height="74" rx="2" fill="#EFF4FA" stroke="none" stroke-width="2"/><text x="199.0" y="337.68" fill="#0D0D0D" font-family="DejaVu Sans" font-size="34.2" font-weight="400" text-anchor="middle">5</text><rect x="237" y="286" width="74" height="74" rx="2" fill="#EFF4FA" stroke="none" stroke-width="2"/><text x="275.0" y="337.68" fill="#0D0D0D" font-family="DejaVu Sans" font-size="34.2" font-weight="400" text-anchor="middle">0</text><rect x="313" y="286" width="74" height="74" rx="2" fill="#EFF4FA" stroke="none" stroke-width="2"/><text x="351.0" y="337.68" fill="#0D0D0D" font-family="DejaVu Sans" font-size="34.2" font-weight="400" text-anchor="middle">6</text><rect x="85" y="362" width="74" height="74" rx="2" fill="#EFF4FA" stroke="none" stroke-width="2"/><text x="123.0" y="413.68" fill="#0D0D0D" font-family="DejaVu Sans" font-size="34.2" font-weight="400" text-anchor="middle">2</text><rect x="161" y="362" width="74" height="74" rx="2" fill="#EFF4FA" stroke="none" stroke-width="2"/><text x="199.0" y="413.68" fill="#0D0D0D" font-family="DejaVu Sans" font-size="34.2" font-weight="400" text-anchor="middle">1</text><rect x="237" y="362" width="74" height="74" rx="2" fill="#EFF4FA" stroke="none" stroke-width="2"/><text x="275.0" y="413.68" fill="#0D0D0D" font-family="DejaVu Sans" font-size="34.2" font-weight="400" text-anchor="middle">7</text><rect x="313" y="362" width="74" height="74" rx="2" fill="#EFF4FA" stroke="none" stroke-width="2"/><text x="351.0" y="413.68" fill="#0D0D0D" font-family="DejaVu Sans" font-size="34.2" font-weight="400" text-anchor="middle">3</text><text x="237" y="494.0" fill="#23468C" font-family="DejaVu Sans" font-size="27" font-weight="700" text-anchor="middle">Fenêtres 2 × 2</text><line x1="465" y1="285" x2="641" y2="285" stroke="#56677F" stroke-width="3" marker-end="url(#arrow)"/><rect x="736" y="172" width="108" height="108" rx="2" fill="#EFF4FA" stroke="none" stroke-width="2"/><text x="791.0" y="246.8" fill="#0D0D0D" font-family="DejaVu Sans" font-size="49.5" font-weight="400" text-anchor="middle">4</text><rect x="846" y="172" width="108" height="108" rx="2" fill="#EFF4FA" stroke="none" stroke-width="2"/><text x="901.0" y="246.8" fill="#0D0D0D" font-family="DejaVu Sans" font-size="49.5" font-weight="400" text-anchor="middle">8</text><rect x="736" y="282" width="108" height="108" rx="2" fill="#EFF4FA" stroke="none" stroke-width="2"/><text x="791.0" y="356.8" fill="#0D0D0D" font-family="DejaVu Sans" font-size="49.5" font-weight="400" text-anchor="middle">5</text><rect x="846" y="282" width="108" height="108" rx="2" fill="#EFF4FA" stroke="none" stroke-width="2"/><text x="901.0" y="356.8" fill="#0D0D0D" font-family="DejaVu Sans" font-size="49.5" font-weight="400" text-anchor="middle">7</text><text x="850" y="465.0" fill="#238C33" font-family="DejaVu Sans" font-size="27" font-weight="700" text-anchor="middle">Maximum local</text><line x1="30" y1="557" x2="1170" y2="557" stroke="#CDD8E6" stroke-width="1"/><text x="32" y="584.0" fill="#56677F" font-family="DejaVu Sans" font-size="16" font-weight="400" text-anchor="start">Schéma pédagogique • valeurs d’illustration, sauf indication contraire</text><text x="1166" y="584.0" fill="#23468C" font-family="DejaVu Sans" font-size="16" font-weight="400" text-anchor="end">https://p2enjoy.studio</text></svg>