<svg xmlns="http://www.w3.org/2000/svg" width="1200" height="600" viewBox="0 0 1200 600"><defs><marker id="arrow" viewBox="0 0 10 10" refX="9" refY="5" markerWidth="7" markerHeight="7" orient="auto"><path d="M 0 0 L 10 5 L 0 10 z" fill="#56677F"/></marker></defs><rect width="1200" height="600" fill="#FFFFFF"/><text x="36" y="42.0" fill="#23468C" font-family="DejaVu Sans" font-size="21" font-weight="700" text-anchor="start">MÉCANISME • LA FICHE DE DIAGNOSTIC</text><rect x="48" y="85" width="330" height="60" rx="14" fill="#23468C" stroke="none" stroke-width="2"/><text x="213.0" y="122.14" fill="#FFFFFF" font-family="DejaVu Sans" font-size="21" font-weight="700" text-anchor="middle">SYMPTÔME</text><rect x="398" y="85" width="340" height="60" rx="14" fill="#23468C" stroke="none" stroke-width="2"/><text x="568.0" y="122.14" fill="#FFFFFF" font-family="DejaVu Sans" font-size="21" font-weight="700" text-anchor="middle">TEST</text><rect x="760" y="85" width="385" height="60" rx="14" fill="#23468C" stroke="none" stroke-width="2"/><text x="952.5" y="122.14" fill="#FFFFFF" font-family="DejaVu Sans" font-size="21" font-weight="700" text-anchor="middle">ACTION CANDIDATE</text><rect x="48" y="160" width="330" height="80" rx="14" fill="#EFF4FA" stroke="none" stroke-width="2"/><text x="213.0" y="193.60000000000002" fill="#0D0D0D" font-family="DejaVu Sans" font-size="20" font-weight="700" text-anchor="middle">Train bon, validation</text><text x="213.0" y="220.00000000000003" fill="#0D0D0D" font-family="DejaVu Sans" font-size="20" font-weight="700" text-anchor="middle">mauvaise</text><rect x="398" y="160" width="340" height="80" rx="14" fill="#EFF4FA" stroke="none" stroke-width="2"/><text x="568.0" y="206.8" fill="#0D0D0D" font-family="DejaVu Sans" font-size="20" font-weight="700" text-anchor="middle">Vérifier split et courbes</text><rect x="760" y="160" width="385" height="80" rx="14" fill="#EFF4FA" stroke="none" stroke-width="2"/><text x="952.5" y="206.8" fill="#0D0D0D" font-family="DejaVu Sans" font-size="20" font-weight="700" text-anchor="middle">Régularisation / données</text><rect x="48" y="252" width="330" height="80" rx="14" fill="#EFF4FA" stroke="none" stroke-width="2"/><text x="213.0" y="298.8" fill="#0D0D0D" font-family="DejaVu Sans" font-size="20" font-weight="700" text-anchor="middle">Perte instable</text><rect x="398" y="252" width="340" height="80" rx="14" fill="#EFF4FA" stroke="none" stroke-width="2"/><text x="568.0" y="285.6" fill="#0D0D0D" font-family="DejaVu Sans" font-size="20" font-weight="700" text-anchor="middle">Réduire le taux à données</text><text x="568.0" y="312.0" fill="#0D0D0D" font-family="DejaVu Sans" font-size="20" font-weight="700" text-anchor="middle">fixes</text><rect x="760" y="252" width="385" height="80" rx="14" fill="#EFF4FA" stroke="none" stroke-width="2"/><text x="952.5" y="298.8" fill="#0D0D0D" font-family="DejaVu Sans" font-size="20" font-weight="700" text-anchor="middle">Taux / normalisation</text><rect x="48" y="344" width="330" height="80" rx="14" fill="#EFF4FA" stroke="none" stroke-width="2"/><text x="213.0" y="390.8" fill="#0D0D0D" font-family="DejaVu Sans" font-size="20" font-weight="700" text-anchor="middle">Rien n’apprend</text><rect x="398" y="344" width="340" height="80" rx="14" fill="#EFF4FA" stroke="none" stroke-width="2"/><text x="568.0" y="390.8" fill="#0D0D0D" font-family="DejaVu Sans" font-size="20" font-weight="700" text-anchor="middle">Mémoriser 32 exemples</text><rect x="760" y="344" width="385" height="80" rx="14" fill="#EFF4FA" stroke="none" stroke-width="2"/><text x="952.5" y="390.8" fill="#0D0D0D" font-family="DejaVu Sans" font-size="20" font-weight="700" text-anchor="middle">Corriger données / boucle</text><rect x="48" y="436" width="330" height="80" rx="14" fill="#EFF4FA" stroke="none" stroke-width="2"/><text x="213.0" y="482.8" fill="#0D0D0D" font-family="DejaVu Sans" font-size="20" font-weight="700" text-anchor="middle">Score global flatteur</text><rect x="398" y="436" width="340" height="80" rx="14" fill="#EFF4FA" stroke="none" stroke-width="2"/><text x="568.0" y="469.6" fill="#0D0D0D" font-family="DejaVu Sans" font-size="20" font-weight="700" text-anchor="middle">Examiner positifs et</text><text x="568.0" y="496.0" fill="#0D0D0D" font-family="DejaVu Sans" font-size="20" font-weight="700" text-anchor="middle">alertes</text><rect x="760" y="436" width="385" height="80" rx="14" fill="#EFF4FA" stroke="none" stroke-width="2"/><text x="952.5" y="482.8" fill="#0D0D0D" font-family="DejaVu Sans" font-size="20" font-weight="700" text-anchor="middle">Métrique / seuil</text><line x1="30" y1="557" x2="1170" y2="557" stroke="#CDD8E6" stroke-width="1"/><text x="32" y="584.0" fill="#56677F" font-family="DejaVu Sans" font-size="16" font-weight="400" text-anchor="start">Schéma pédagogique • valeurs d’illustration, sauf indication contraire</text><text x="1166" y="584.0" fill="#23468C" font-family="DejaVu Sans" font-size="16" font-weight="400" text-anchor="end">https://p2enjoy.studio</text></svg>