<svg xmlns="http://www.w3.org/2000/svg" width="1200" height="600" viewBox="0 0 1200 600"><defs><marker id="arrow" viewBox="0 0 10 10" refX="9" refY="5" markerWidth="7" markerHeight="7" orient="auto"><path d="M 0 0 L 10 5 L 0 10 z" fill="#56677F"/></marker></defs><rect width="1200" height="600" fill="#FFFFFF"/><text x="35" y="43.0" fill="#23468C" font-family="DejaVu Sans" font-size="24" font-weight="700" text-anchor="start">DOSSIERS FICTIFS : VARIABLES ET CIBLE</text><rect x="35" y="88" width="175" height="47" rx="14" fill="#23468C" stroke="none" stroke-width="2"/><text x="122.5" y="116.94" fill="#FFFFFF" font-family="DejaVu Sans" font-size="16" font-weight="700" text-anchor="middle">v00</text><rect x="221" y="88" width="175" height="47" rx="14" fill="#23468C" stroke="none" stroke-width="2"/><text x="308.5" y="116.94" fill="#FFFFFF" font-family="DejaVu Sans" font-size="16" font-weight="700" text-anchor="middle">v01</text><rect x="407" y="88" width="175" height="47" rx="14" fill="#23468C" stroke="none" stroke-width="2"/><text x="494.5" y="116.94" fill="#FFFFFF" font-family="DejaVu Sans" font-size="16" font-weight="700" text-anchor="middle">v02</text><rect x="593" y="88" width="175" height="47" rx="14" fill="#23468C" stroke="none" stroke-width="2"/><text x="680.5" y="116.94" fill="#FFFFFF" font-family="DejaVu Sans" font-size="16" font-weight="700" text-anchor="middle">v03</text><rect x="779" y="88" width="175" height="47" rx="14" fill="#23468C" stroke="none" stroke-width="2"/><text x="866.5" y="116.94" fill="#FFFFFF" font-family="DejaVu Sans" font-size="16" font-weight="700" text-anchor="middle">v04</text><rect x="965" y="88" width="175" height="47" rx="14" fill="#23468C" stroke="none" stroke-width="2"/><text x="1052.5" y="116.94" fill="#FFFFFF" font-family="DejaVu Sans" font-size="16" font-weight="700" text-anchor="middle">examen_utile</text><rect x="35" y="148" width="175" height="37" rx="14" fill="#EFF4FA" stroke="none" stroke-width="2"/><text x="122.5" y="171.26" fill="#0D0D0D" font-family="DejaVu Sans" font-size="14" font-weight="700" text-anchor="middle">2.45</text><rect x="221" y="148" width="175" height="37" rx="14" fill="#EFF4FA" stroke="none" stroke-width="2"/><text x="308.5" y="171.26" fill="#0D0D0D" font-family="DejaVu Sans" font-size="14" font-weight="700" text-anchor="middle">3.01</text><rect x="407" y="148" width="175" height="37" rx="14" fill="#EFF4FA" stroke="none" stroke-width="2"/><text x="494.5" y="171.26" fill="#0D0D0D" font-family="DejaVu Sans" font-size="14" font-weight="700" text-anchor="middle">0.86</text><rect x="593" y="148" width="175" height="37" rx="14" fill="#EFF4FA" stroke="none" stroke-width="2"/><text x="680.5" y="171.26" fill="#0D0D0D" font-family="DejaVu Sans" font-size="14" font-weight="700" text-anchor="middle">-0.57</text><rect x="779" y="148" width="175" height="37" rx="14" fill="#EFF4FA" stroke="none" stroke-width="2"/><text x="866.5" y="171.26" fill="#0D0D0D" font-family="DejaVu Sans" font-size="14" font-weight="700" text-anchor="middle">0.79</text><rect x="965" y="148" width="175" height="37" rx="14" fill="#EFF4FA" stroke="none" stroke-width="2"/><text x="1052.5" y="171.26" fill="#0D0D0D" font-family="DejaVu Sans" font-size="14" font-weight="700" text-anchor="middle">0</text><rect x="35" y="191" width="175" height="37" rx="14" fill="#EFF4FA" stroke="none" stroke-width="2"/><text x="122.5" y="214.26" fill="#0D0D0D" font-family="DejaVu Sans" font-size="14" font-weight="700" text-anchor="middle">0.31</text><rect x="221" y="191" width="175" height="37" rx="14" fill="#EFF4FA" stroke="none" stroke-width="2"/><text x="308.5" y="214.26" fill="#0D0D0D" font-family="DejaVu Sans" font-size="14" font-weight="700" text-anchor="middle">0.44</text><rect x="407" y="191" width="175" height="37" rx="14" fill="#EFF4FA" stroke="none" stroke-width="2"/><text x="494.5" y="214.26" fill="#0D0D0D" font-family="DejaVu Sans" font-size="14" font-weight="700" text-anchor="middle">1.22</text><rect x="593" y="191" width="175" height="37" rx="14" fill="#EFF4FA" stroke="none" stroke-width="2"/><text x="680.5" y="214.26" fill="#0D0D0D" font-family="DejaVu Sans" font-size="14" font-weight="700" text-anchor="middle">-1.21</text><rect x="779" y="191" width="175" height="37" rx="14" fill="#EFF4FA" stroke="none" stroke-width="2"/><text x="866.5" y="214.26" fill="#0D0D0D" font-family="DejaVu Sans" font-size="14" font-weight="700" text-anchor="middle">-0.39</text><rect x="965" y="191" width="175" height="37" rx="14" fill="#EFF4FA" stroke="none" stroke-width="2"/><text x="1052.5" y="214.26" fill="#0D0D0D" font-family="DejaVu Sans" font-size="14" font-weight="700" text-anchor="middle">0</text><rect x="35" y="234" width="175" height="37" rx="14" fill="#EFF4FA" stroke="none" stroke-width="2"/><text x="122.5" y="257.26" fill="#0D0D0D" font-family="DejaVu Sans" font-size="14" font-weight="700" text-anchor="middle">-2.28</text><rect x="221" y="234" width="175" height="37" rx="14" fill="#EFF4FA" stroke="none" stroke-width="2"/><text x="308.5" y="257.26" fill="#0D0D0D" font-family="DejaVu Sans" font-size="14" font-weight="700" text-anchor="middle">-0.97</text><rect x="407" y="234" width="175" height="37" rx="14" fill="#EFF4FA" stroke="none" stroke-width="2"/><text x="494.5" y="257.26" fill="#0D0D0D" font-family="DejaVu Sans" font-size="14" font-weight="700" text-anchor="middle">1.79</text><rect x="593" y="234" width="175" height="37" rx="14" fill="#EFF4FA" stroke="none" stroke-width="2"/><text x="680.5" y="257.26" fill="#0D0D0D" font-family="DejaVu Sans" font-size="14" font-weight="700" text-anchor="middle">-1.86</text><rect x="779" y="234" width="175" height="37" rx="14" fill="#EFF4FA" stroke="none" stroke-width="2"/><text x="866.5" y="257.26" fill="#0D0D0D" font-family="DejaVu Sans" font-size="14" font-weight="700" text-anchor="middle">-0.08</text><rect x="965" y="234" width="175" height="37" rx="14" fill="#EFF4FA" stroke="none" stroke-width="2"/><text x="1052.5" y="257.26" fill="#0D0D0D" font-family="DejaVu Sans" font-size="14" font-weight="700" text-anchor="middle">0</text><rect x="35" y="277" width="175" height="37" rx="14" fill="#EFF4FA" stroke="none" stroke-width="2"/><text x="122.5" y="300.26" fill="#0D0D0D" font-family="DejaVu Sans" font-size="14" font-weight="700" text-anchor="middle">2.30</text><rect x="221" y="277" width="175" height="37" rx="14" fill="#EFF4FA" stroke="none" stroke-width="2"/><text x="308.5" y="300.26" fill="#0D0D0D" font-family="DejaVu Sans" font-size="14" font-weight="700" text-anchor="middle">0.96</text><rect x="407" y="277" width="175" height="37" rx="14" fill="#EFF4FA" stroke="none" stroke-width="2"/><text x="494.5" y="300.26" fill="#0D0D0D" font-family="DejaVu Sans" font-size="14" font-weight="700" text-anchor="middle">-1.11</text><rect x="593" y="277" width="175" height="37" rx="14" fill="#EFF4FA" stroke="none" stroke-width="2"/><text x="680.5" y="300.26" fill="#0D0D0D" font-family="DejaVu Sans" font-size="14" font-weight="700" text-anchor="middle">-2.54</text><rect x="779" y="277" width="175" height="37" rx="14" fill="#EFF4FA" stroke="none" stroke-width="2"/><text x="866.5" y="300.26" fill="#0D0D0D" font-family="DejaVu Sans" font-size="14" font-weight="700" text-anchor="middle">-1.14</text><rect x="965" y="277" width="175" height="37" rx="14" fill="#EFF4FA" stroke="none" stroke-width="2"/><text x="1052.5" y="300.26" fill="#0D0D0D" font-family="DejaVu Sans" font-size="14" font-weight="700" text-anchor="middle">0</text><rect x="35" y="320" width="175" height="37" rx="14" fill="#EFF4FA" stroke="none" stroke-width="2"/><text x="122.5" y="343.26" fill="#0D0D0D" font-family="DejaVu Sans" font-size="14" font-weight="700" text-anchor="middle">0.58</text><rect x="221" y="320" width="175" height="37" rx="14" fill="#EFF4FA" stroke="none" stroke-width="2"/><text x="308.5" y="343.26" fill="#0D0D0D" font-family="DejaVu Sans" font-size="14" font-weight="700" text-anchor="middle">1.99</text><rect x="407" y="320" width="175" height="37" rx="14" fill="#EFF4FA" stroke="none" stroke-width="2"/><text x="494.5" y="343.26" fill="#0D0D0D" font-family="DejaVu Sans" font-size="14" font-weight="700" text-anchor="middle">3.95</text><rect x="593" y="320" width="175" height="37" rx="14" fill="#EFF4FA" stroke="none" stroke-width="2"/><text x="680.5" y="343.26" fill="#0D0D0D" font-family="DejaVu Sans" font-size="14" font-weight="700" text-anchor="middle">-1.71</text><rect x="779" y="320" width="175" height="37" rx="14" fill="#EFF4FA" stroke="none" stroke-width="2"/><text x="866.5" y="343.26" fill="#0D0D0D" font-family="DejaVu Sans" font-size="14" font-weight="700" text-anchor="middle">-0.02</text><rect x="965" y="320" width="175" height="37" rx="14" fill="#EFF4FA" stroke="none" stroke-width="2"/><text x="1052.5" y="343.26" fill="#0D0D0D" font-family="DejaVu Sans" font-size="14" font-weight="700" text-anchor="middle">0</text><rect x="35" y="363" width="175" height="37" rx="14" fill="#EFF4FA" stroke="none" stroke-width="2"/><text x="122.5" y="386.26" fill="#0D0D0D" font-family="DejaVu Sans" font-size="14" font-weight="700" text-anchor="middle">-0.29</text><rect x="221" y="363" width="175" height="37" rx="14" fill="#EFF4FA" stroke="none" stroke-width="2"/><text x="308.5" y="386.26" fill="#0D0D0D" font-family="DejaVu Sans" font-size="14" font-weight="700" text-anchor="middle">0.50</text><rect x="407" y="363" width="175" height="37" rx="14" fill="#EFF4FA" stroke="none" stroke-width="2"/><text x="494.5" y="386.26" fill="#0D0D0D" font-family="DejaVu Sans" font-size="14" font-weight="700" text-anchor="middle">1.19</text><rect x="593" y="363" width="175" height="37" rx="14" fill="#EFF4FA" stroke="none" stroke-width="2"/><text x="680.5" y="386.26" fill="#0D0D0D" font-family="DejaVu Sans" font-size="14" font-weight="700" text-anchor="middle">-1.46</text><rect x="779" y="363" width="175" height="37" rx="14" fill="#EFF4FA" stroke="none" stroke-width="2"/><text x="866.5" y="386.26" fill="#0D0D0D" font-family="DejaVu Sans" font-size="14" font-weight="700" text-anchor="middle">-0.78</text><rect x="965" y="363" width="175" height="37" rx="14" fill="#EFF4FA" stroke="none" stroke-width="2"/><text x="1052.5" y="386.26" fill="#0D0D0D" font-family="DejaVu Sans" font-size="14" font-weight="700" text-anchor="middle">0</text><rect x="35" y="406" width="175" height="37" rx="14" fill="#EFF4FA" stroke="none" stroke-width="2"/><text x="122.5" y="429.26" fill="#0D0D0D" font-family="DejaVu Sans" font-size="14" font-weight="700" text-anchor="middle">-3.36</text><rect x="221" y="406" width="175" height="37" rx="14" fill="#EFF4FA" stroke="none" stroke-width="2"/><text x="308.5" y="429.26" fill="#0D0D0D" font-family="DejaVu Sans" font-size="14" font-weight="700" text-anchor="middle">-1.31</text><rect x="407" y="406" width="175" height="37" rx="14" fill="#EFF4FA" stroke="none" stroke-width="2"/><text x="494.5" y="429.26" fill="#0D0D0D" font-family="DejaVu Sans" font-size="14" font-weight="700" text-anchor="middle">1.36</text><rect x="593" y="406" width="175" height="37" rx="14" fill="#EFF4FA" stroke="none" stroke-width="2"/><text x="680.5" y="429.26" fill="#0D0D0D" font-family="DejaVu Sans" font-size="14" font-weight="700" text-anchor="middle">0.52</text><rect x="779" y="406" width="175" height="37" rx="14" fill="#EFF4FA" stroke="none" stroke-width="2"/><text x="866.5" y="429.26" fill="#0D0D0D" font-family="DejaVu Sans" font-size="14" font-weight="700" text-anchor="middle">0.34</text><rect x="965" y="406" width="175" height="37" rx="14" fill="#EFF4FA" stroke="none" stroke-width="2"/><text x="1052.5" y="429.26" fill="#0D0D0D" font-family="DejaVu Sans" font-size="14" font-weight="700" text-anchor="middle">0</text><rect x="35" y="449" width="175" height="37" rx="14" fill="#EFF4FA" stroke="none" stroke-width="2"/><text x="122.5" y="472.26" fill="#0D0D0D" font-family="DejaVu Sans" font-size="14" font-weight="700" text-anchor="middle">-1.01</text><rect x="221" y="449" width="175" height="37" rx="14" fill="#EFF4FA" stroke="none" stroke-width="2"/><text x="308.5" y="472.26" fill="#0D0D0D" font-family="DejaVu Sans" font-size="14" font-weight="700" text-anchor="middle">-1.38</text><rect x="407" y="449" width="175" height="37" rx="14" fill="#EFF4FA" stroke="none" stroke-width="2"/><text x="494.5" y="472.26" fill="#0D0D0D" font-family="DejaVu Sans" font-size="14" font-weight="700" text-anchor="middle">2.18</text><rect x="593" y="449" width="175" height="37" rx="14" fill="#EFF4FA" stroke="none" stroke-width="2"/><text x="680.5" y="472.26" fill="#0D0D0D" font-family="DejaVu Sans" font-size="14" font-weight="700" text-anchor="middle">-0.69</text><rect x="779" y="449" width="175" height="37" rx="14" fill="#EFF4FA" stroke="none" stroke-width="2"/><text x="866.5" y="472.26" fill="#0D0D0D" font-family="DejaVu Sans" font-size="14" font-weight="700" text-anchor="middle">-0.26</text><rect x="965" y="449" width="175" height="37" rx="14" fill="#EFF4FA" stroke="none" stroke-width="2"/><text x="1052.5" y="472.26" fill="#0D0D0D" font-family="DejaVu Sans" font-size="14" font-weight="700" text-anchor="middle">0</text><text x="600" y="533.0" fill="#56677F" font-family="DejaVu Sans" font-size="22" font-weight="700" text-anchor="middle">Extrait du jeu synthétique livré ; aucune donnée fiscale réelle.</text><line x1="30" y1="557" x2="1170" y2="557" stroke="#CDD8E6" stroke-width="1"/><text x="32" y="584.0" fill="#56677F" font-family="DejaVu Sans" font-size="16" font-weight="400" text-anchor="start">Illustration pédagogique • schéma explicatif, pas une mesure métier</text><text x="1166" y="584.0" fill="#23468C" font-family="DejaVu Sans" font-size="16" font-weight="400" text-anchor="end">https://p2enjoy.studio</text></svg>