<svg xmlns="http://www.w3.org/2000/svg" width="1200" height="600" viewBox="0 0 1200 600"><defs><marker id="arrow" viewBox="0 0 10 10" refX="9" refY="5" markerWidth="7" markerHeight="7" orient="auto"><path d="M 0 0 L 10 5 L 0 10 z" fill="#56677F"/></marker></defs><rect width="1200" height="600" fill="#FFFFFF"/><text x="35" y="43.0" fill="#23468C" font-family="DejaVu Sans" font-size="24" font-weight="700" text-anchor="start">LES BIAIS PEUVENT APPARAÎTRE DANS TOUTE LA CHAÎNE</text><rect x="50" y="180" width="161.66666666666666" height="120" rx="14" fill="#EFF4FA" stroke="none" stroke-width="2"/><text x="130.83333333333331" y="247.82" fill="#0D0D0D" font-family="DejaVu Sans" font-size="23" font-weight="700" text-anchor="middle">Collecte</text><line x1="215.66666666666666" y1="240" x2="233.66666666666666" y2="240" stroke="#56677F" stroke-width="3" marker-end="url(#arrow)"/><rect x="237.66666666666666" y="180" width="161.66666666666666" height="120" rx="14" fill="#EFF4FA" stroke="none" stroke-width="2"/><text x="318.5" y="247.82" fill="#0D0D0D" font-family="DejaVu Sans" font-size="23" font-weight="700" text-anchor="middle">Annotation</text><line x1="403.3333333333333" y1="240" x2="421.3333333333333" y2="240" stroke="#56677F" stroke-width="3" marker-end="url(#arrow)"/><rect x="425.3333333333333" y="180" width="161.66666666666666" height="120" rx="14" fill="#EFF4FA" stroke="none" stroke-width="2"/><text x="506.16666666666663" y="247.82" fill="#0D0D0D" font-family="DejaVu Sans" font-size="23" font-weight="700" text-anchor="middle">Modèle</text><line x1="591.0" y1="240" x2="609.0" y2="240" stroke="#56677F" stroke-width="3" marker-end="url(#arrow)"/><rect x="613.0" y="180" width="161.66666666666666" height="120" rx="14" fill="#EFF4FA" stroke="none" stroke-width="2"/><text x="693.8333333333334" y="247.82" fill="#0D0D0D" font-family="DejaVu Sans" font-size="23" font-weight="700" text-anchor="middle">Métrique</text><line x1="778.6666666666666" y1="240" x2="796.6666666666666" y2="240" stroke="#56677F" stroke-width="3" marker-end="url(#arrow)"/><rect x="800.6666666666666" y="180" width="161.66666666666666" height="120" rx="14" fill="#EFF4FA" stroke="none" stroke-width="2"/><text x="881.5" y="247.82" fill="#0D0D0D" font-family="DejaVu Sans" font-size="23" font-weight="700" text-anchor="middle">Seuil</text><line x1="966.3333333333333" y1="240" x2="984.3333333333333" y2="240" stroke="#56677F" stroke-width="3" marker-end="url(#arrow)"/><rect x="988.3333333333333" y="180" width="161.66666666666666" height="120" rx="14" fill="#EFF4FA" stroke="none" stroke-width="2"/><text x="1069.1666666666665" y="247.82" fill="#0D0D0D" font-family="DejaVu Sans" font-size="23" font-weight="700" text-anchor="middle">Usage</text><circle cx="132" cy="397" r="15" fill="#F24141" stroke="none" stroke-width="2"/><circle cx="319" cy="397" r="15" fill="#F24141" stroke="none" stroke-width="2"/><circle cx="506" cy="397" r="15" fill="#F24141" stroke="none" stroke-width="2"/><circle cx="693" cy="397" r="15" fill="#F24141" stroke="none" stroke-width="2"/><circle cx="880" cy="397" r="15" fill="#F24141" stroke="none" stroke-width="2"/><circle cx="1067" cy="397" r="15" fill="#F24141" stroke="none" stroke-width="2"/><text x="600" y="492.0" fill="#56677F" font-family="DejaVu Sans" font-size="27" font-weight="700" text-anchor="middle">Pour chaque risque : un test, un responsable et une action.</text><line x1="30" y1="557" x2="1170" y2="557" stroke="#CDD8E6" stroke-width="1"/><text x="32" y="584.0" fill="#56677F" font-family="DejaVu Sans" font-size="16" font-weight="400" text-anchor="start">Illustration pédagogique • schéma explicatif, pas une mesure métier</text><text x="1166" y="584.0" fill="#23468C" font-family="DejaVu Sans" font-size="16" font-weight="400" text-anchor="end">https://p2enjoy.studio</text></svg>