<svg xmlns="http://www.w3.org/2000/svg" width="1200" height="600" viewBox="0 0 1200 600"><defs><marker id="arrow" viewBox="0 0 10 10" refX="9" refY="5" markerWidth="7" markerHeight="7" orient="auto"><path d="M 0 0 L 10 5 L 0 10 z" fill="#56677F"/></marker></defs><rect width="1200" height="600" fill="#FFFFFF"/><text x="35" y="43.0" fill="#23468C" font-family="DejaVu Sans" font-size="24" font-weight="700" text-anchor="start">RENDRE UNE CONTRIBUTION ALGORITHMIQUE INTELLIGIBLE</text><rect x="60" y="105" width="305" height="360" rx="14" fill="#23468C" stroke="none" stroke-width="2"/><text x="212.5" y="275.4" fill="#FFFFFF" font-family="DejaVu Sans" font-size="30" font-weight="700" text-anchor="middle">Décision</text><text x="212.5" y="315.0" fill="#FFFFFF" font-family="DejaVu Sans" font-size="30" font-weight="700" text-anchor="middle">administrative</text><rect x="470" y="85" width="675" height="92" rx="14" fill="#EFF4FA" stroke="none" stroke-width="2"/><text x="807.5" y="139.5" fill="#0D0D0D" font-family="DejaVu Sans" font-size="25" font-weight="700" text-anchor="middle">Degré de contribution</text><rect x="470" y="195" width="675" height="92" rx="14" fill="#EFF4FA" stroke="none" stroke-width="2"/><text x="807.5" y="249.5" fill="#0D0D0D" font-family="DejaVu Sans" font-size="25" font-weight="700" text-anchor="middle">Données et sources</text><rect x="470" y="305" width="675" height="92" rx="14" fill="#EFF4FA" stroke="none" stroke-width="2"/><text x="807.5" y="359.5" fill="#0D0D0D" font-family="DejaVu Sans" font-size="25" font-weight="700" text-anchor="middle">Paramètres pertinents</text><rect x="470" y="415" width="675" height="92" rx="14" fill="#EFF4FA" stroke="none" stroke-width="2"/><text x="807.5" y="469.5" fill="#0D0D0D" font-family="DejaVu Sans" font-size="25" font-weight="700" text-anchor="middle">Opérations effectuées</text><line x1="378" y1="285" x2="450" y2="285" stroke="#56677F" stroke-width="3" marker-end="url(#arrow)"/><line x1="30" y1="557" x2="1170" y2="557" stroke="#CDD8E6" stroke-width="1"/><text x="32" y="584.0" fill="#56677F" font-family="DejaVu Sans" font-size="16" font-weight="400" text-anchor="start">Illustration pédagogique • schéma explicatif, pas une mesure métier</text><text x="1166" y="584.0" fill="#23468C" font-family="DejaVu Sans" font-size="16" font-weight="400" text-anchor="end">https://p2enjoy.studio</text></svg>