<svg xmlns="http://www.w3.org/2000/svg" width="1200" height="600" viewBox="0 0 1200 600"><defs><marker id="arrow" viewBox="0 0 10 10" refX="9" refY="5" markerWidth="7" markerHeight="7" orient="auto"><path d="M 0 0 L 10 5 L 0 10 z" fill="#56677F"/></marker></defs><rect width="1200" height="600" fill="#FFFFFF"/><text x="35" y="43.0" fill="#23468C" font-family="DejaVu Sans" font-size="24" font-weight="700" text-anchor="start">TROIS MÉCANISMES DE REPRÉSENTATION</text><rect x="40" y="103" width="360" height="75" rx="14" fill="#23468C" stroke="none" stroke-width="2"/><text x="220.0" y="150.36" fill="#FFFFFF" font-family="DejaVu Sans" font-size="29" font-weight="700" text-anchor="middle">CNN</text><circle cx="78" cy="292" r="11" fill="#238C33" stroke="none" stroke-width="2"/><circle cx="135" cy="292" r="11" fill="#238C33" stroke="none" stroke-width="2"/><circle cx="192" cy="292" r="11" fill="#238C33" stroke="none" stroke-width="2"/><circle cx="249" cy="292" r="11" fill="#238C33" stroke="none" stroke-width="2"/><circle cx="306" cy="292" r="11" fill="#238C33" stroke="none" stroke-width="2"/><circle cx="363" cy="292" r="11" fill="#238C33" stroke="none" stroke-width="2"/><line x1="78" y1="315" x2="135" y2="382" stroke="#CDD8E6" stroke-width="3"/><line x1="135" y1="315" x2="135" y2="382" stroke="#CDD8E6" stroke-width="3"/><line x1="192" y1="315" x2="135" y2="382" stroke="#CDD8E6" stroke-width="3"/><text x="220" y="462.0" fill="#56677F" font-family="DejaVu Sans" font-size="21" font-weight="700" text-anchor="middle">Voisinage spatial</text><rect x="433" y="103" width="360" height="75" rx="14" fill="#23468C" stroke="none" stroke-width="2"/><text x="613.0" y="150.36" fill="#FFFFFF" font-family="DejaVu Sans" font-size="29" font-weight="700" text-anchor="middle">LSTM</text><circle cx="471" cy="292" r="11" fill="#238C33" stroke="none" stroke-width="2"/><circle cx="528" cy="292" r="11" fill="#238C33" stroke="none" stroke-width="2"/><circle cx="585" cy="292" r="11" fill="#238C33" stroke="none" stroke-width="2"/><circle cx="642" cy="292" r="11" fill="#238C33" stroke="none" stroke-width="2"/><circle cx="699" cy="292" r="11" fill="#238C33" stroke="none" stroke-width="2"/><circle cx="756" cy="292" r="11" fill="#238C33" stroke="none" stroke-width="2"/><line x1="486" y1="292" x2="514" y2="292" stroke="#23468C" stroke-width="2" marker-end="url(#arrow)"/><line x1="543" y1="292" x2="571" y2="292" stroke="#23468C" stroke-width="2" marker-end="url(#arrow)"/><line x1="600" y1="292" x2="628" y2="292" stroke="#23468C" stroke-width="2" marker-end="url(#arrow)"/><line x1="657" y1="292" x2="685" y2="292" stroke="#23468C" stroke-width="2" marker-end="url(#arrow)"/><line x1="714" y1="292" x2="742" y2="292" stroke="#23468C" stroke-width="2" marker-end="url(#arrow)"/><text x="613" y="462.0" fill="#56677F" font-family="DejaVu Sans" font-size="21" font-weight="700" text-anchor="middle">État transmis dans le</text><text x="613" y="489.72" fill="#56677F" font-family="DejaVu Sans" font-size="21" font-weight="700" text-anchor="middle">temps</text><rect x="826" y="103" width="360" height="75" rx="14" fill="#23468C" stroke="none" stroke-width="2"/><text x="1006.0" y="150.36" fill="#FFFFFF" font-family="DejaVu Sans" font-size="29" font-weight="700" text-anchor="middle">Transformer</text><circle cx="864" cy="292" r="11" fill="#238C33" stroke="none" stroke-width="2"/><circle cx="921" cy="292" r="11" fill="#238C33" stroke="none" stroke-width="2"/><circle cx="978" cy="292" r="11" fill="#238C33" stroke="none" stroke-width="2"/><circle cx="1035" cy="292" r="11" fill="#238C33" stroke="none" stroke-width="2"/><circle cx="1092" cy="292" r="11" fill="#238C33" stroke="none" stroke-width="2"/><circle cx="1149" cy="292" r="11" fill="#238C33" stroke="none" stroke-width="2"/><line x1="864" y1="280" x2="921" y2="280" stroke="#CDD8E6" stroke-width="1"/><line x1="864" y1="280" x2="978" y2="280" stroke="#CDD8E6" stroke-width="1"/><line x1="864" y1="280" x2="1035" y2="280" stroke="#CDD8E6" stroke-width="1"/><line x1="864" y1="280" x2="1092" y2="280" stroke="#CDD8E6" stroke-width="1"/><line x1="864" y1="280" x2="1149" y2="280" stroke="#CDD8E6" stroke-width="1"/><line x1="921" y1="280" x2="978" y2="280" stroke="#CDD8E6" stroke-width="1"/><line x1="921" y1="280" x2="1035" y2="280" stroke="#CDD8E6" stroke-width="1"/><line x1="921" y1="280" x2="1092" y2="280" stroke="#CDD8E6" stroke-width="1"/><line x1="921" y1="280" x2="1149" y2="280" stroke="#CDD8E6" stroke-width="1"/><line x1="978" y1="280" x2="1035" y2="280" stroke="#CDD8E6" stroke-width="1"/><line x1="978" y1="280" x2="1092" y2="280" stroke="#CDD8E6" stroke-width="1"/><line x1="978" y1="280" x2="1149" y2="280" stroke="#CDD8E6" stroke-width="1"/><line x1="1035" y1="280" x2="1092" y2="280" stroke="#CDD8E6" stroke-width="1"/><line x1="1035" y1="280" x2="1149" y2="280" stroke="#CDD8E6" stroke-width="1"/><line x1="1092" y1="280" x2="1149" y2="280" stroke="#CDD8E6" stroke-width="1"/><text x="1006" y="462.0" fill="#56677F" font-family="DejaVu Sans" font-size="21" font-weight="700" text-anchor="middle">Interactions par attention</text><line x1="30" y1="557" x2="1170" y2="557" stroke="#CDD8E6" stroke-width="1"/><text x="32" y="584.0" fill="#56677F" font-family="DejaVu Sans" font-size="16" font-weight="400" text-anchor="start">Illustration pédagogique • schéma explicatif, pas une mesure métier</text><text x="1166" y="584.0" fill="#23468C" font-family="DejaVu Sans" font-size="16" font-weight="400" text-anchor="end">https://p2enjoy.studio</text></svg>